<?xml version="1.0" encoding="utf-8"?>
<!-- Generator: Adobe Illustrator 16.0.0, SVG Export Plug-In . SVG Version: 6.00 Build 0)  -->
<!DOCTYPE svg PUBLIC "-//W3C//DTD SVG 1.1//EN" "http://www.w3.org/Graphics/SVG/1.1/DTD/svg11.dtd">
<svg version="1.1"
	 id="svg533" xmlns:rdf="http://www.w3.org/1999/02/22-rdf-syntax-ns#" xmlns:svg="http://www.w3.org/2000/svg" xmlns:sodipodi="http://sodipodi.sourceforge.net/DTD/sodipodi-0.dtd" xmlns:inkscape="http://www.inkscape.org/namespaces/inkscape" xmlns:dc="http://purl.org/dc/elements/1.1/" xmlns:cc="http://creativecommons.org/ns#" sodipodi:docname="pegadaian.svg" inkscape:version="0.92.4 (5da689c313, 2019-01-14)"
	 xmlns="http://www.w3.org/2000/svg" xmlns:xlink="http://www.w3.org/1999/xlink" x="0px" y="0px" width="300px" height="155.283px"
	 viewBox="0 0 300 155.283" enable-background="new 0 0 300 155.283" xml:space="preserve">
<sodipodi:namedview  units="px" fit-margin-left="1" showgrid="false" fit-margin-top="1" id="base" pagecolor="#ffffff" bordercolor="#666666" borderopacity="1.0" inkscape:zoom="1.4" inkscape:cy="-53.210717" inkscape:cx="128.90049" inkscape:window-maximized="1" inkscape:window-y="-8" inkscape:window-x="-8" inkscape:window-height="705" inkscape:window-width="1366" fit-margin-bottom="1" fit-margin-right="1" inkscape:current-layer="layer1" inkscape:pageshadow="2" inkscape:pageopacity="0.0" inkscape:document-units="mm">
	</sodipodi:namedview>
<g id="layer1" transform="translate(-36.595211,-32.868781)" inkscape:label="Layer 1" inkscape:groupmode="layer">
	<g id="g475" transform="matrix(0.75120102,0,0,-0.75120102,-313.16649,627.25164)">
		<g id="g150" transform="translate(473.16755,759.7406)" display="none">
			<path id="path152" inkscape:connector-curvature="0" display="inline" fill="#004E44" d="M106.387-145.239H79.129v-66.686h11.547
				v24.491h10.167c0,0,15.31-0.585,20.791,12.942C126.498-162.49,121.172-145.239,106.387-145.239 M112.241-168.495
				c-1.235-8.473-9.857-9.393-9.857-9.393H90.37v22.945h12.324C108.855-154.942,113.364-160.751,112.241-168.495"/>
		</g>
		<g id="g154" transform="translate(488.40655,748.1264)" display="none">
			<path id="path156" inkscape:connector-curvature="0" display="inline" fill="#004E44" d="M148.745-177.522
				c0,0,2.909,28.649-18.327,27.882c-25.406-0.931-22.949-42.075-7.699-49.131c12.321-5.699,26.026,1.232,26.026,1.232v10.163
				c-27.871-12.318-25.566,9.706-25.566,9.706L148.745-177.522z M131.804-158.889c8.16-0.456,6.928-10.62,6.928-10.62h-15.246
				C123.486-169.509,123.349-158.404,131.804-158.889"/>
		</g>
		<g id="g158" transform="translate(495.50165,736.9026)" display="none">
			<path id="path160" inkscape:connector-curvature="0" display="inline" fill="#004E44" d="M168.465-208.719
				c20.307-0.008,20.307,19.17,20.307,19.17v51.149h-10.004v-4.177c-24.492,13.709-34.806-14.94-26.953-35.421
				c7.855-20.482,26.491-7.548,26.491-7.548c-0.469-22.481-25.568-8.47-25.568-8.47v-11.547
				C152.739-205.562,157.897-208.727,168.465-208.719 M178.616-174.154c0,0-1.05-5.538-9.615-5.538
				c-8.56,0-7.328,18.785-7.328,18.785s-0.276,12.94,7.328,13.243c7.609,0.313,9.615-3.999,9.615-3.999V-174.154z"/>
		</g>
		<g id="g162" transform="translate(523.11735,759.5361)" display="none">
			<path id="path164" inkscape:connector-curvature="0" display="inline" fill="#004E44" d="M245.224-145.808v-18.169
				c-24.479,13.705-34.801-14.94-26.944-35.421c7.849-20.482,26.486-7.552,26.486-7.552v-4.021h10.474v65.163H245.224z
				 M245.073-195.554c0,0-1.04-5.542-9.607-5.542c-8.562,0-7.333,18.797-7.333,18.797s-0.276,12.926,7.333,13.239
				c7.608,0.309,9.607-4.007,9.607-4.007V-195.554z"/>
		</g>
		<g id="g166" transform="translate(512.44275,744.5826)" display="none">
			<path id="path168" inkscape:connector-curvature="0" display="inline" fill="#004E44" d="M215.554-187.372v23.713
				c0,0,2.025,25.331-31.877,15.096v-10.009c0,0,3.999,2.62,11.705,2.62c7.696,0,10.009-3.39,10.009-8.467
				c0,0-24.333,4.611-26.491-14.793c-2.154-19.4,18.022-20.791,26.491-13.402c0,0,3.409-7.264,15.863-3.406v8.648
				C221.253-187.372,218.176-188.453,215.554-187.372 M190.604-180.134c0.307,10.624,14.434,8.353,14.434,8.353
				s0.045-6.735,0.045-12.752C202.767-188.385,190.295-190.759,190.604-180.134"/>
		</g>
		<path id="path170" inkscape:connector-curvature="0" display="none" fill="#004E44" d="M839.495,548.565h10.015v48.382h-10.015
			V548.565z"/>
		<g id="g180" transform="translate(544.89865,758.1026)" display="none">
			<path id="path182" inkscape:connector-curvature="0" display="inline" fill="#004E44" d="M305.765-149.793
				c0-3.405-2.759-6.165-6.157-6.165c-3.409,0-6.167,2.76-6.167,6.165c0,3.402,2.759,6.161,6.167,6.161
				C303.006-143.632,305.765-146.391,305.765-149.793"/>
		</g>
		<g id="g184" transform="translate(560.85125,755.0946)" display="none">
			<path id="path186" inkscape:connector-curvature="0" display="inline" fill="#004E44" d="M350.106-158.154h10.318v-4.003
				c0,0,4.003,5.239,13.556,5.239c9.541,0,14.162-9.551,14.162-13.092v-36.522h-11.24v34.364c0,0-0.311,4.777-5.697,4.777
				c-5.388,0-10.635-4.468-10.635-6.626v-32.516h-10.465V-158.154z"/>
		</g>
		<g id="g188" transform="translate(538.03385,744.5826)" display="none">
			<path id="path190" inkscape:connector-curvature="0" display="inline" fill="#004E44" d="M286.684-187.372v23.713
				c0,0,2.023,25.331-31.88,15.096v-10.009c0,0,4.003,2.62,11.705,2.62c7.699,0,10.013-3.39,10.013-8.467
				c0,0-24.333,4.611-26.491-14.793c-2.154-19.4,18.021-20.791,26.491-13.402c0,0,3.413-7.264,15.863-3.406v8.648
				C292.385-187.372,289.304-188.453,286.684-187.372 M261.74-180.134c0.303,10.624,14.426,8.353,14.426,8.353
				s0.046-6.735,0.046-12.752C273.899-188.385,261.427-190.759,261.74-180.134"/>
		</g>
		<g id="g192" transform="translate(557.09835,744.5826)" display="none">
			<path id="path194" inkscape:connector-curvature="0" display="inline" fill="#004E44" d="M339.675-187.372v23.713
				c0,0,2.018,25.331-31.88,15.096v-10.009c0,0,4.001,2.62,11.705,2.62c7.699,0,10.011-3.39,10.011-8.467
				c0,0-24.332,4.611-26.494-14.793c-2.151-19.404,18.025-20.791,26.494-13.402c0,0,3.413-7.264,15.863-3.406v8.648
				C345.374-187.372,342.291-188.453,339.675-187.372 M314.731-180.134c0.302,10.624,14.43,8.353,14.43,8.353
				s0.038-6.735,0.038-12.752C326.886-188.385,314.42-190.759,314.731-180.134"/>
		</g>
		<g id="g196" transform="translate(479.80185,790.8901)">
			<path id="path198" inkscape:connector-curvature="0" fill="#BFD730" d="M124.827-58.659c-25.009,0-45.279-20.274-45.279-45.279
				c0-25.008,20.27-45.275,45.279-45.275c11.157,0,21.369,4.036,29.26,10.726c-9.803,8.304-16.017,20.701-16.017,34.549
				c0,13.853,6.214,26.25,16.017,34.557C146.197-62.696,135.984-58.659,124.827-58.659"/>
		</g>
		<g id="g200" transform="translate(495.28555,790.8901)">
			<path id="path202" inkscape:connector-curvature="0" fill="#72BF44" d="M167.864-58.659c-11.157,0-21.373-4.036-29.262-10.722
				c9.797-8.307,16.019-20.704,16.019-34.557c0-13.848-6.222-26.244-16.019-34.549c7.888-6.69,18.105-10.726,29.262-10.726
				c25.009,0,45.279,20.267,45.279,45.275C213.143-78.933,192.874-58.659,167.864-58.659"/>
		</g>
		<g id="g204" transform="translate(487.54375,788.0527)">
			<path id="path206" inkscape:connector-curvature="0" fill="#00AB4E" d="M146.346-66.546
				c-9.801-8.308-16.013-20.705-16.013-34.553c0-13.852,6.213-26.248,16.013-34.553c9.793,8.304,16.013,20.701,16.013,34.553
				C162.359-87.251,156.139-74.854,146.346-66.546"/>
		</g>
		<g id="g208" transform="translate(522.91205,778.9112)">
			<path id="path210" inkscape:connector-curvature="0" fill="#00AB4E" d="M244.653-91.954c0-25.009-20.27-45.279-45.275-45.279
				c-25.008,0-45.278,20.27-45.278,45.279c0,25.004,20.27,45.278,45.278,45.278C224.383-46.676,244.653-66.95,244.653-91.954"/>
		</g>
		<g id="g212" transform="translate(517.42975,783.4358)">
			<path id="path214" inkscape:connector-curvature="0" fill="#FFFFFF" d="M229.414-79.379c-3.567,2.438-12.869,6.256-24.188,6.282
				v0.004l-0.364-0.004l-0.377,0.004v-0.004c-11.317-0.026-20.614-3.844-24.185-6.282c-1.157-0.79-1.86-1.795-1.795-2.438
				c0.192-0.575,0.868-0.892,2.861-0.287c3.427,1.047,11.69,5.733,23.496,5.836c11.804-0.103,20.055-4.789,23.487-5.836
				c1.995-0.604,2.668-0.287,2.864,0.287C231.279-81.174,230.571-80.169,229.414-79.379"/>
		</g>
		<g id="g216" transform="translate(512.84415,775.4372)">
			<path id="path218" inkscape:connector-curvature="0" fill="#FFFFFF" d="M216.67-101.61c0,0-7.488-0.485-3.137-4.831
				c4.342-4.346,18.346-9.656,29.93,0c0,0,4.833,3.858-2.415,4.831C233.809-100.651,216.67-101.61,216.67-101.61"/>
		</g>
		<g id="g220" transform="translate(511.66655,774.8623)">
			<path id="path222" inkscape:connector-curvature="0" fill="#FFFFFF" d="M213.396-103.209l14.483,33.714h4.021l14.283-33.714
				h-3.507L229.89-73.373l-13.316-29.836H213.396z"/>
		</g>
		<g id="g224" transform="translate(4.4143465,-15.134902)">
			<g>
				<defs>
					<rect id="SVGID_1_" x="-916.644" y="-1903.196" width="1690.099" height="2390.281"/>
				</defs>
				<clipPath id="SVGID_2_">
					<use xlink:href="#SVGID_1_"  overflow="visible"/>
				</clipPath>
				<g id="g226" clip-path="url(#SVGID_2_)">
					<g id="g232" transform="translate(498.2892,790.5721)">
						<path id="path234" inkscape:connector-curvature="0" fill="#FFFFFF" d="M188.484-101.612c0,0-7.484-0.484-3.137-4.829
							c4.342-4.347,18.35-9.656,29.934,0c0,0,4.833,3.858-2.415,4.829C205.627-100.651,188.484-101.612,188.484-101.612"/>
					</g>
				</g>
			</g>
		</g>
		<g id="g236" transform="translate(501.52615,774.8623)">
			<path id="path238" inkscape:connector-curvature="0" fill="#FFFFFF" d="M185.211-103.209l14.482,33.714h4.018l14.279-33.714
				h-3.504l-12.783,29.836l-13.315-29.836H185.211z"/>
		</g>
	</g>
</g>
</svg>
